# xmcd CD database file
#
# Track frame offsets:
#	150
#	28207
#	50461
#	70415
#	89825
#	111968
#	133257
#	151902
#	174555
#	190440
#	220112
#	241803
#	260955
#	285614
#
# Disc length: 4214 seconds
#
# Revision: 21
# Processed by: cddbd v1.5.2PL0 Copyright (c) Steve Scherf et al.
# Submitted via: CDex 1.70beta3
#
DISCID=dd10740e
DTITLE=I've - COLLECTIVE
DYEAR=2005
DGENRE=Soundtrack
TTITLE0=島みやえい子 - Automaton
TTITLE1=KOTOKO - Abyss
TTITLE2=川田まみ - IMMORAL
TTITLE3=詩月カオリ - Do you know the magic?
TTITLE4=MOMO - philosophy
TTITLE5=KOTOKO - We Survive
TTITLE6=MELL - Permit
TTITLE7=KOTOKO - Lupe
TTITLE8=Shiho - Kiss the Future
TTITLE9=MELL - Egen
TTITLE10=KOTOKO - Imaginary affair
TTITLE11=川田まみ - eclipse
TTITLE12=KOTOKO - Trust You're Truth ～明日を守る約束～
TTITLE13=KOTOKO - Collective
EXTD=YEAR: 2005
EXTT0=
EXTT1=
EXTT2=
EXTT3=
EXTT4=
EXTT5=
EXTT6=
EXTT7=
EXTT8=
EXTT9=
EXTT10=
EXTT11=
EXTT12=
EXTT13=
PLAYORDER=
